<!-- Generator: Adobe Illustrator 24.0.1, SVG Export Plug-In  -->
<svg version="1.1" xmlns="http://www.w3.org/2000/svg" xmlns:xlink="http://www.w3.org/1999/xlink" x="0px" y="0px" width="28px"
	 height="27.8px" viewBox="0 0 28 27.8" style="enable-background:new 0 0 28 27.8;" xml:space="preserve">
<style type="text/css">
	.st0{opacity:0.5;}
	.st1{fill:#383838;}
	.st2{fill:none;stroke:#FFFFFF;stroke-miterlimit:10;}
	.st3{fill:#FFFFFF;}
	.st4{fill:none;stroke:#CCCCCC;stroke-miterlimit:10;}
	.st5{fill:#CCCCCC;}
	.st6{opacity:0.75;}
</style>
<defs>
</defs>
<g id="XMLID_1_">
	<ellipse id="XMLID_23_" class="st0" cx="14" cy="15.9" rx="14" ry="11.9"/>
	<ellipse id="XMLID_22_" class="st1" cx="14" cy="11.9" rx="14" ry="11.9"/>
	<ellipse id="XMLID_21_" class="st2" cx="14" cy="11.9" rx="8.63" ry="7.33"/>
	<path id="XMLID_20_" class="st3" d="M14,20.4c0.79,0,1.56-0.09,2.3-0.24l1.06,3.28c-1.08,0.23-2.2,0.36-3.36,0.36
		c-1.16,0-2.28-0.13-3.36-0.36l1.06-3.28C12.44,20.31,13.21,20.4,14,20.4z"/>
	<path id="XMLID_19_" class="st3" d="M5.34,16.15c0.4,0.58,0.87,1.11,1.39,1.58l-2.81,2.42c-0.77-0.68-1.47-1.44-2.05-2.3
		c-0.58-0.86-1.01-1.75-1.32-2.66l3.87-0.86C4.65,14.96,4.94,15.57,5.34,16.15z"/>
	<path id="XMLID_18_" class="st3" d="M5.34,7.65c-0.4,0.58-4.56,3.34-4.78,3.96v-3c0.31-0.91,0.73-1.8,1.32-2.66
		c0.58-0.86,1.28-1.62,2.05-2.3v3C3.4,7.12,5.74,7.07,5.34,7.65z"/>
	<path id="XMLID_17_" class="st3" d="M14,3.4c-0.79,0-2.62-0.19-3.36-0.04v-3C11.72,0.13,12.84,0,14,0c1.16,0,2.28,0.13,3.36,0.36v3
		C16.62,3.21,14.79,3.4,14,3.4z"/>
	<path id="XMLID_16_" class="st3" d="M22.66,7.65c-0.4-0.58,1.94-0.53,1.41-1v-3c0.77,0.68,1.47,1.44,2.05,2.3
		c0.58,0.86,1.01,1.75,1.32,2.66v3C27.22,10.99,23.06,8.23,22.66,7.65z"/>
	<path id="XMLID_15_" class="st3" d="M22.66,16.15c0.4-0.58,0.69-1.19,0.91-1.81l3.87,0.86c-0.31,0.91-0.73,1.8-1.32,2.66
		c-0.58,0.86-1.28,1.62-2.05,2.3l-2.81-2.42C21.79,17.26,22.26,16.73,22.66,16.15z"/>
	<ellipse id="XMLID_14_" cx="14" cy="14.9" rx="14" ry="11.9"/>
	<ellipse id="XMLID_13_" class="st4" cx="14" cy="14.9" rx="8.63" ry="7.33"/>
	<path id="XMLID_12_" class="st3" d="M14,23.4c0.79,0,1.56-0.09,2.3-0.24l1.06,3.28c-1.08,0.23-2.2,0.36-3.36,0.36
		c-1.16,0-2.28-0.13-3.36-0.36l1.06-3.28C12.44,23.31,13.21,23.4,14,23.4z"/>
	<path id="XMLID_11_" class="st3" d="M5.34,19.15c0.4,0.58,0.87,1.11,1.39,1.58l-2.81,2.42c-0.77-0.68-1.47-1.44-2.05-2.3
		c-0.58-0.86-1.01-1.75-1.32-2.66l3.87-0.86C4.65,17.96,4.94,18.57,5.34,19.15z"/>
	<path id="XMLID_10_" class="st5" d="M5.34,10.65c-0.4,0.58-0.69,1.19-0.91,1.81l-3.87-0.86c0.31-0.91,0.73-1.8,1.32-2.66
		c0.58-0.86,1.28-1.62,2.05-2.3l2.81,2.42C6.21,9.54,5.74,10.07,5.34,10.65z"/>
	<path id="XMLID_9_" class="st5" d="M14,6.4c-0.79,0-1.56,0.09-2.3,0.24l-1.06-3.28C11.72,3.13,12.84,3,14,3
		c1.16,0,2.28,0.13,3.36,0.36L16.3,6.64C15.56,6.49,14.79,6.4,14,6.4z"/>
	<path id="XMLID_8_" class="st5" d="M22.66,10.65c-0.4-0.58-0.87-1.11-1.39-1.58l2.81-2.42c0.77,0.68,1.47,1.44,2.05,2.3
		c0.58,0.86,1.01,1.75,1.32,2.66l-3.87,0.86C23.35,11.84,23.06,11.23,22.66,10.65z"/>
	<path id="XMLID_7_" class="st5" d="M22.66,19.15c0.4-0.58,0.69-1.19,0.91-1.81l3.87,0.86c-0.31,0.91-0.73,1.8-1.32,2.66
		c-0.58,0.86-1.28,1.62-2.05,2.3l-2.81-2.42C21.79,20.26,22.26,19.73,22.66,19.15z"/>
	<g id="XMLID_2_">
		<g id="XMLID_3_" class="st6">
			<path id="XMLID_4_" class="st3" d="M14,3.5c7.44,0,13.5,5.11,13.5,11.4c0,6.29-6.06,11.4-13.5,11.4S0.5,21.19,0.5,14.9
				C0.5,8.61,6.56,3.5,14,3.5 M14,3C6.27,3,0,8.33,0,14.9c0,6.57,6.27,11.9,14,11.9s14-5.33,14-11.9C28,8.33,21.73,3,14,3L14,3z"/>
		</g>
	</g>
</g>
</svg>
