<!-- Generator: Adobe Illustrator 24.0.1, SVG Export Plug-In  -->
<svg version="1.1" xmlns="http://www.w3.org/2000/svg" xmlns:xlink="http://www.w3.org/1999/xlink" x="0px" y="0px" width="44.29px"
	 height="58.49px" viewBox="0 0 44.29 58.49" style="enable-background:new 0 0 44.29 58.49;" xml:space="preserve">
<style type="text/css">
	.st0{opacity:0.5;}
	.st1{fill:#E6E7E8;}
	.st2{fill:url(#XMLID_25_);}
	.st3{fill:#ED3E50;}
	.st4{fill:url(#XMLID_26_);}
</style>
<defs>
</defs>
<g id="XMLID_1_">
	<g id="XMLID_11_">
		<g id="XMLID_13_">
			<path id="XMLID_24_" class="st0" d="M38.34,58.49H7.65c-3.28,0-5.96-2.68-5.96-5.96V7.65c0-3.28,2.68-5.96,5.96-5.96h30.69
				c3.28,0,5.96,2.68,5.96,5.96v44.89C44.29,55.81,41.61,58.49,38.34,58.49z"/>
			<g id="XMLID_14_">
				<path id="XMLID_23_" class="st1" d="M37.14,57.3H6.46c-3.28,0-5.96-2.68-5.96-5.96V6.46c0-3.28,2.68-5.96,5.96-5.96h30.69
					c3.28,0,5.96,2.68,5.96,5.96v44.89C43.1,54.62,40.42,57.3,37.14,57.3z"/>
				<linearGradient id="XMLID_25_" gradientUnits="userSpaceOnUse" x1="0" y1="28.9014" x2="43.6016" y2="28.9014">
					<stop  offset="0" style="stop-color:#FFFFFF"/>
					<stop  offset="1" style="stop-color:#E6E7E8"/>
				</linearGradient>
				<path id="XMLID_15_" class="st2" d="M37.14,57.8H6.46C2.9,57.8,0,54.91,0,51.34V6.46C0,2.9,2.9,0,6.46,0h30.69
					c3.56,0,6.46,2.9,6.46,6.46v44.89C43.6,54.91,40.71,57.8,37.14,57.8z M6.46,1C3.45,1,1,3.45,1,6.46v44.89
					c0,3.01,2.45,5.46,5.46,5.46h30.69c3.01,0,5.46-2.45,5.46-5.46V6.46C42.6,3.45,40.15,1,37.14,1H6.46z"/>
			</g>
		</g>
		<circle id="XMLID_12_" class="st3" cx="21.8" cy="28.9" r="12.11"/>
	</g>
	<g id="XMLID_2_">
		<g id="XMLID_7_">
			<path id="XMLID_8_" class="st3" d="M11.23,13.95c0.51,0.43,0.99,0.75,1.42,0.95l-0.33,0.94c-0.61-0.27-1.21-0.69-1.8-1.26
				c-0.62,0.42-1.3,0.64-2.05,0.64c-1.23,0-2.22-0.54-2.98-1.61c-0.68-0.97-1.03-2.19-1.03-3.67c0-1.11,0.18-2.07,0.55-2.88
				c0.37-0.81,0.85-1.42,1.45-1.82c0.6-0.4,1.27-0.6,2.02-0.6c0.74,0,1.41,0.21,2.02,0.63c0.61,0.42,1.09,1.02,1.45,1.82
				c0.36,0.8,0.54,1.74,0.54,2.83c0,0.85-0.11,1.62-0.33,2.31C11.94,12.91,11.63,13.48,11.23,13.95z M8.78,12.22
				c0.64,0.21,1.17,0.54,1.59,0.98c0.65-0.74,0.98-1.83,0.98-3.29c0-0.88-0.13-1.63-0.37-2.24c-0.25-0.62-0.59-1.08-1.03-1.4
				C9.49,5.95,9.01,5.79,8.49,5.79c-0.83,0-1.52,0.35-2.07,1.04C5.88,7.53,5.6,8.56,5.6,9.93c0,1.35,0.28,2.38,0.83,3.08
				c0.55,0.7,1.24,1.05,2.06,1.05c0.39,0,0.76-0.09,1.12-0.27c-0.34-0.27-0.71-0.47-1.1-0.59L8.78,12.22z"/>
		</g>
		<g id="XMLID_3_">
			<path id="XMLID_4_" class="st3" d="M32.37,43.85c-0.51-0.43-0.99-0.75-1.42-0.95l0.33-0.94c0.61,0.27,1.21,0.69,1.8,1.26
				c0.62-0.42,1.3-0.64,2.05-0.64c1.23,0,2.22,0.54,2.98,1.61c0.68,0.97,1.03,2.19,1.03,3.67c0,1.11-0.18,2.07-0.55,2.88
				c-0.37,0.81-0.85,1.42-1.45,1.82c-0.6,0.4-1.27,0.6-2.02,0.6c-0.74,0-1.41-0.21-2.02-0.63c-0.61-0.42-1.09-1.02-1.45-1.82
				c-0.36-0.8-0.54-1.74-0.54-2.83c0-0.85,0.11-1.62,0.33-2.31C31.67,44.9,31.97,44.32,32.37,43.85z M34.83,45.59
				c-0.64-0.21-1.17-0.54-1.59-0.98c-0.65,0.74-0.98,1.83-0.98,3.29c0,0.88,0.13,1.63,0.37,2.24c0.25,0.61,0.59,1.08,1.03,1.4
				c0.44,0.32,0.92,0.47,1.44,0.47c0.83,0,1.52-0.35,2.07-1.04c0.55-0.7,0.82-1.73,0.82-3.1c0-1.35-0.28-2.38-0.83-3.08
				c-0.55-0.7-1.24-1.05-2.06-1.05c-0.39,0-0.76,0.09-1.12,0.27c0.34,0.27,0.71,0.47,1.1,0.59L34.83,45.59z"/>
		</g>
	</g>
</g>
</svg>
