<!-- Generator: Adobe Illustrator 24.0.1, SVG Export Plug-In  -->
<svg version="1.1" xmlns="http://www.w3.org/2000/svg" xmlns:xlink="http://www.w3.org/1999/xlink" x="0px" y="0px" width="44.29px"
	 height="58.49px" viewBox="0 0 44.29 58.49" style="enable-background:new 0 0 44.29 58.49;" xml:space="preserve">
<style type="text/css">
	.st0{opacity:0.5;}
	.st1{fill:#E6E7E8;}
	.st2{fill:url(#XMLID_18_);}
	.st3{fill:#ED3E50;}
	.st4{fill:url(#XMLID_19_);}
</style>
<defs>
</defs>
<g id="XMLID_1_">
	<g id="XMLID_9_">
		<g id="XMLID_11_">
			<path id="XMLID_17_" class="st0" d="M38.34,58.49H7.65c-3.28,0-5.96-2.68-5.96-5.96V7.65c0-3.28,2.68-5.96,5.96-5.96h30.69
				c3.28,0,5.96,2.68,5.96,5.96v44.89C44.29,55.81,41.61,58.49,38.34,58.49z"/>
			<g id="XMLID_12_">
				<path id="XMLID_16_" class="st1" d="M37.14,57.3H6.46c-3.28,0-5.96-2.68-5.96-5.96V6.46c0-3.28,2.68-5.96,5.96-5.96h30.69
					c3.28,0,5.96,2.68,5.96,5.96v44.89C43.1,54.62,40.42,57.3,37.14,57.3z"/>
				<linearGradient id="XMLID_18_" gradientUnits="userSpaceOnUse" x1="0" y1="28.9014" x2="43.6015" y2="28.9014">
					<stop  offset="0" style="stop-color:#FFFFFF"/>
					<stop  offset="1" style="stop-color:#E6E7E8"/>
				</linearGradient>
				<path id="XMLID_13_" class="st2" d="M37.14,57.8H6.46C2.9,57.8,0,54.91,0,51.34V6.46C0,2.9,2.9,0,6.46,0h30.69
					c3.56,0,6.46,2.9,6.46,6.46v44.89C43.6,54.91,40.7,57.8,37.14,57.8z M6.46,1C3.45,1,1,3.45,1,6.46v44.89
					c0,3.01,2.45,5.46,5.46,5.46h30.69c3.01,0,5.46-2.45,5.46-5.46V6.46C42.6,3.45,40.15,1,37.14,1H6.46z"/>
			</g>
		</g>
		<path id="XMLID_10_" class="st3" d="M11,25.18h-0.01c0,0,0.24,0.34,0.25,0.35c0.02,0.03,0.04,0.07,0.07,0.1h0
			c0.61,0.85,10.49,15.04,10.49,15.04l10.48-15.02h0c0.02-0.02,0.03-0.04,0.04-0.06l0.29-0.4H32.6c0.51-0.79,0.81-1.7,0.81-2.68
			c0-2.96-2.67-5.36-5.96-5.36c-2.67,0-4.9,1.59-5.66,3.77c-0.76-2.18-2.99-3.77-5.66-3.77c-3.29,0-5.96,2.4-5.96,5.36
			C10.18,23.48,10.49,24.39,11,25.18z"/>
	</g>
	<g id="XMLID_2_">
		<g id="XMLID_6_">
			<path id="XMLID_7_" class="st3" d="M9.83,13.84v1.21H4.28c-0.01-0.49,0.13-1.04,0.44-1.64c0.31-0.61,0.88-1.32,1.7-2.14
				c0.96-0.96,1.59-1.7,1.89-2.23c0.3-0.52,0.45-1.01,0.45-1.46c0-0.52-0.15-0.95-0.46-1.27C8,5.97,7.62,5.8,7.17,5.8
				C6.7,5.8,6.3,5.98,5.99,6.34C5.69,6.69,5.53,7.2,5.53,7.86L4.47,7.73c0.07-0.98,0.35-1.72,0.83-2.22c0.48-0.5,1.12-0.74,1.9-0.74
				c0.86,0,1.5,0.29,1.94,0.87C9.59,6.21,9.81,6.87,9.81,7.6c0,0.65-0.17,1.28-0.52,1.87c-0.34,0.6-1,1.39-1.96,2.39
				c-0.61,0.63-1.01,1.06-1.19,1.29c-0.18,0.23-0.32,0.46-0.44,0.69H9.83z"/>
		</g>
		<g id="XMLID_3_">
			<path id="XMLID_4_" class="st3" d="M33.78,43.96v-1.21h5.55c0.01,0.49-0.13,1.04-0.44,1.64c-0.31,0.61-0.88,1.32-1.7,2.14
				c-0.96,0.96-1.59,1.7-1.89,2.23c-0.3,0.52-0.45,1.01-0.45,1.46c0,0.52,0.15,0.95,0.46,1.28c0.31,0.33,0.68,0.49,1.13,0.49
				c0.48,0,0.87-0.18,1.18-0.53c0.31-0.36,0.46-0.86,0.46-1.53l1.06,0.13c-0.07,0.98-0.35,1.72-0.83,2.22
				c-0.48,0.5-1.12,0.74-1.9,0.74c-0.86,0-1.5-0.29-1.94-0.87c-0.44-0.58-0.66-1.23-0.66-1.97c0-0.65,0.17-1.28,0.52-1.87
				c0.34-0.6,1-1.4,1.96-2.39c0.61-0.63,1.01-1.06,1.19-1.29c0.18-0.23,0.33-0.46,0.44-0.68H33.78z"/>
		</g>
	</g>
</g>
</svg>
