<!-- Generator: Adobe Illustrator 24.0.1, SVG Export Plug-In  -->
<svg version="1.1" xmlns="http://www.w3.org/2000/svg" xmlns:xlink="http://www.w3.org/1999/xlink" x="0px" y="0px" width="44.29px"
	 height="58.49px" viewBox="0 0 44.29 58.49" style="enable-background:new 0 0 44.29 58.49;" xml:space="preserve">
<style type="text/css">
	.st0{opacity:0.5;}
	.st1{fill:#E6E7E8;}
	.st2{fill:url(#XMLID_18_);}
	.st3{fill:#2F3034;}
	.st4{fill:url(#XMLID_19_);}
</style>
<defs>
</defs>
<g id="XMLID_1_">
	<g id="XMLID_11_">
		<path id="XMLID_17_" class="st0" d="M38.34,58.49H7.65c-3.28,0-5.96-2.68-5.96-5.96V7.65c0-3.28,2.68-5.96,5.96-5.96h30.69
			c3.28,0,5.96,2.68,5.96,5.96v44.89C44.29,55.81,41.61,58.49,38.34,58.49z"/>
		<g id="XMLID_12_">
			<path id="XMLID_16_" class="st1" d="M37.14,57.3H6.46c-3.28,0-5.96-2.68-5.96-5.96V6.46c0-3.28,2.68-5.96,5.96-5.96h30.69
				c3.28,0,5.96,2.68,5.96,5.96v44.89C43.1,54.62,40.42,57.3,37.14,57.3z"/>
			<linearGradient id="XMLID_18_" gradientUnits="userSpaceOnUse" x1="0" y1="28.9014" x2="43.6015" y2="28.9014">
				<stop  offset="0" style="stop-color:#FFFFFF"/>
				<stop  offset="1" style="stop-color:#E6E7E8"/>
			</linearGradient>
			<path id="XMLID_13_" class="st2" d="M37.14,57.8H6.46C2.9,57.8,0,54.91,0,51.34V6.46C0,2.9,2.9,0,6.46,0h30.69
				c3.56,0,6.46,2.9,6.46,6.46v44.89C43.6,54.91,40.7,57.8,37.14,57.8z M6.46,1C3.45,1,1,3.45,1,6.46v44.89
				c0,3.01,2.45,5.46,5.46,5.46h30.69c3.01,0,5.46-2.45,5.46-5.46V6.46C42.6,3.45,40.15,1,37.14,1H6.46z"/>
		</g>
	</g>
	<path id="XMLID_10_" class="st3" d="M32.5,28.45L21.8,17.01L11.11,28.45l0,0c-0.58,0.83-0.92,1.81-0.92,2.86
		c0,2.96,2.67,5.36,5.96,5.36c2.01,0,3.77-0.9,4.84-2.28c-0.11,2.98-0.63,6.39-2.46,6.39h2.98h0.6h2.98c-1.83,0-2.35-3.42-2.46-6.39
		c1.07,1.38,2.83,2.28,4.84,2.28c3.29,0,5.96-2.4,5.96-5.36C33.42,30.26,33.08,29.28,32.5,28.45L32.5,28.45z"/>
	<g id="XMLID_2_">
		<g id="XMLID_7_">
			<path id="XMLID_8_" class="st3" d="M4.47,6.15V4.94h5.42v0.98c-0.81,1.05-1.52,2.42-2.14,4.11c-0.61,1.69-0.97,3.36-1.06,5.02
				H5.64c0.01-0.86,0.15-1.85,0.41-3c0.26-1.14,0.61-2.23,1.06-3.26c0.45-1.03,0.94-1.91,1.46-2.64H4.47z"/>
		</g>
		<g id="XMLID_3_">
			<path id="XMLID_4_" class="st3" d="M39.14,51.65v1.21h-5.42v-0.98c0.81-1.05,1.52-2.42,2.14-4.11c0.61-1.69,0.97-3.36,1.06-5.02
				h1.05c-0.01,0.86-0.15,1.85-0.41,3c-0.26,1.14-0.61,2.23-1.06,3.26c-0.45,1.03-0.94,1.91-1.46,2.64H39.14z"/>
		</g>
	</g>
</g>
</svg>