<!-- Generator: Adobe Illustrator 24.0.1, SVG Export Plug-In  -->
<svg version="1.1" xmlns="http://www.w3.org/2000/svg" xmlns:xlink="http://www.w3.org/1999/xlink" x="0px" y="0px" width="44.29px"
	 height="58.49px" viewBox="0 0 44.29 58.49" style="enable-background:new 0 0 44.29 58.49;" xml:space="preserve">
<style type="text/css">
	.st0{opacity:0.5;}
	.st1{fill:#E6E7E8;}
	.st2{fill:url(#XMLID_20_);}
	.st3{fill:#2F3034;}
	.st4{fill:url(#XMLID_21_);}
</style>
<defs>
</defs>
<g id="XMLID_1_">
	<g id="XMLID_11_">
		<g id="XMLID_13_">
			<path id="XMLID_19_" class="st0" d="M38.34,58.49H7.65c-3.28,0-5.96-2.68-5.96-5.96V7.65c0-3.28,2.68-5.96,5.96-5.96h30.69
				c3.28,0,5.96,2.68,5.96,5.96v44.89C44.29,55.81,41.61,58.49,38.34,58.49z"/>
			<g id="XMLID_14_">
				<path id="XMLID_18_" class="st1" d="M37.14,57.3H6.46c-3.28,0-5.96-2.68-5.96-5.96V6.46c0-3.28,2.68-5.96,5.96-5.96h30.69
					c3.28,0,5.96,2.68,5.96,5.96v44.89C43.1,54.62,40.42,57.3,37.14,57.3z"/>
				<linearGradient id="XMLID_20_" gradientUnits="userSpaceOnUse" x1="0" y1="28.9014" x2="43.6015" y2="28.9014">
					<stop  offset="0" style="stop-color:#FFFFFF"/>
					<stop  offset="1" style="stop-color:#E6E7E8"/>
				</linearGradient>
				<path id="XMLID_15_" class="st2" d="M37.14,57.8H6.46C2.9,57.8,0,54.91,0,51.34V6.46C0,2.9,2.9,0,6.46,0h30.69
					c3.56,0,6.46,2.9,6.46,6.46v44.89C43.6,54.91,40.7,57.8,37.14,57.8z M6.46,1C3.45,1,1,3.45,1,6.46v44.89
					c0,3.01,2.45,5.46,5.46,5.46h30.69c3.01,0,5.46-2.45,5.46-5.46V6.46C42.6,3.45,40.15,1,37.14,1H6.46z"/>
			</g>
		</g>
		<path id="XMLID_12_" class="st3" d="M27.46,25.95c-0.48,0-0.95,0.07-1.4,0.16c1.05-0.97,1.7-2.28,1.7-3.74
			c0-2.96-2.67-5.36-5.96-5.36c-3.29,0-5.96,2.4-5.96,5.36c0,1.46,0.65,2.77,1.7,3.74c-0.45-0.1-0.91-0.16-1.4-0.16
			c-3.29,0-5.96,2.4-5.96,5.36s2.67,5.36,5.96,5.36c2.01,0,3.77-0.9,4.84-2.28c-0.11,2.98-0.63,6.39-2.46,6.39h2.98h0.6h2.98
			c-1.83,0-2.35-3.42-2.46-6.39c1.07,1.38,2.83,2.28,4.84,2.28c3.29,0,5.96-2.4,5.96-5.36S30.75,25.95,27.46,25.95z"/>
	</g>
	<g id="XMLID_2_">
		<g id="XMLID_7_">
			<path id="XMLID_8_" class="st3" d="M3.91,15.05L7.15,4.81h1.19l3.44,10.23H10.5l-0.98-3.1H6l-0.91,3.1H3.91z M6.32,10.84h2.86
				L8.31,8.01C8.04,7.14,7.84,6.43,7.71,5.89C7.61,6.54,7.45,7.19,7.26,7.84L6.32,10.84z"/>
		</g>
		<g id="XMLID_3_">
			<path id="XMLID_4_" class="st3" d="M39.69,42.76l-3.24,10.23h-1.19l-3.44-10.23h1.27l0.98,3.1h3.53l0.91-3.1H39.69z M37.28,46.96
				h-2.86l0.87,2.83c0.27,0.87,0.47,1.58,0.59,2.12c0.11-0.66,0.26-1.31,0.46-1.95L37.28,46.96z"/>
		</g>
	</g>
</g>
</svg>
